<mxfile host="www.draw.io" modified="2019-12-12T03:01:41.396Z" agent="Mozilla/5.0 (X11; Linux x86_64) AppleWebKit/537.36 (KHTML, like Gecko) Chrome/77.0.3865.120 Safari/537.36" etag="38LU6e3SBic3PtPwnC2V" version="12.3.9" type="github" pages="1">
  <diagram id="sGyDJ3xmPa0FNn7oHpdU" name="第 1 页">
    <mxGraphModel dx="1021" dy="580" grid="1" gridSize="10" guides="1" tooltips="1" connect="1" arrows="1" fold="1" page="1" pageScale="1" pageWidth="827" pageHeight="1169" math="0" shadow="0">
      <root>
        <mxCell id="0"/>
        <mxCell id="1" parent="0"/>
        <mxCell id="7dCBN_STnB0BZGOZmq9B-1" value="AI" style="shape=umlLifeline;perimeter=lifelinePerimeter;whiteSpace=wrap;html=1;container=1;collapsible=0;recursiveResize=0;outlineConnect=0;fontSize=14;" vertex="1" parent="1">
          <mxGeometry x="140" y="60" width="100" height="300" as="geometry"/>
        </mxCell>
        <mxCell id="7dCBN_STnB0BZGOZmq9B-2" value="bridge" style="shape=umlLifeline;perimeter=lifelinePerimeter;whiteSpace=wrap;html=1;container=1;collapsible=0;recursiveResize=0;outlineConnect=0;fontSize=14;" vertex="1" parent="1">
          <mxGeometry x="420" y="60" width="100" height="300" as="geometry"/>
        </mxCell>
        <mxCell id="7dCBN_STnB0BZGOZmq9B-3" value="MQ" style="shape=umlLifeline;perimeter=lifelinePerimeter;whiteSpace=wrap;html=1;container=1;collapsible=0;recursiveResize=0;outlineConnect=0;fontSize=14;" vertex="1" parent="1">
          <mxGeometry x="283" y="60" width="100" height="300" as="geometry"/>
        </mxCell>
        <mxCell id="7dCBN_STnB0BZGOZmq9B-4" value="meeting" style="shape=umlLifeline;perimeter=lifelinePerimeter;whiteSpace=wrap;html=1;container=1;collapsible=0;recursiveResize=0;outlineConnect=0;fontSize=14;" vertex="1" parent="1">
          <mxGeometry x="550" y="60" width="100" height="300" as="geometry"/>
        </mxCell>
      </root>
    </mxGraphModel>
  </diagram>
</mxfile>
